<svg width="300" height="300" viewBox="0 0 300 300" fill="none" xmlns="http://www.w3.org/2000/svg">
<path d="M95.2625 173.8L60.8625 156.6V148.6L95.2625 131.4V138.36L70.4625 150.52C69.4492 151 68.4892 151.427 67.5825 151.8C66.7292 152.12 66.0892 152.333 65.6625 152.44C66.1425 152.547 66.8358 152.787 67.7425 153.16C68.6492 153.48 69.5558 153.88 70.4625 154.36L95.2625 166.6V173.8ZM109.631 179V120.6H144.031V127.16H116.671V146.52H141.951V153.08H116.831V179H109.631ZM156 187.8L184.4 112.6H192L163.6 187.8H156ZM204.769 173.8V166.84L229.569 154.68C230.582 154.2 231.515 153.8 232.369 153.48C233.275 153.107 233.942 152.867 234.369 152.76C233.889 152.653 233.195 152.44 232.289 152.12C231.382 151.747 230.475 151.32 229.569 150.84L204.769 138.6V131.4L239.169 148.6V156.6L204.769 173.8Z" fill="#A9A9A9"/>
<path d="M20.5234 126.327L64.5939 55.0831C72.7951 41.8252 87.2741 33.7564 102.864 33.7564H197.136C212.726 33.7564 227.205 41.8252 235.406 55.0832L279.477 126.327C288.45 140.833 288.45 159.167 279.477 173.673L235.406 244.917C227.205 258.175 212.726 266.244 197.136 266.244H102.864C87.2741 266.244 72.7951 258.175 64.5939 244.917L20.5234 173.673C11.5497 159.167 11.5497 140.833 20.5234 126.327Z" stroke="#49DF97" stroke-width="10"/>
</svg>
